0
SECTION
2
HEADER
9
$INSUNITS
70
4
9
$ACADVER
1
AC1014
9
$HANDSEED
5
FFFF
0
ENDSEC
0
SECTION
2
TABLES
0
TABLE
2
VPORT
5
8
100
AcDbSymbolTable
0
ENDTAB
0
TABLE
2
LTYPE
5
5
100
AcDbSymbolTable
0
LTYPE
5
14
100
AcDbSymbolTableRecord
100
AcDbLinetypeTableRecord
2
BYBLOCK
70
0
0
LTYPE
5
15
100
AcDbSymbolTableRecord
100
AcDbLinetypeTableRecord
2
BYLAYER
70
0
0
ENDTAB
0
TABLE
2
LAYER
5
2
100
AcDbSymbolTable
70
2
0
LAYER
5
50
100
AcDbSymbolTableRecord
100
AcDbLayerTableRecord
2
0
70
0
6
CONTINUOUS
0
ENDTAB
0
TABLE
2
STYLE
5
3
100
AcDbSymbolTable
70
1
0
STYLE
5
11
100
AcDbSymbolTableRecord
100
AcDbTextStyleTableRecord
2
STANDARD
70
0
0
ENDTAB
0
TABLE
2
VIEW
5
6
100
AcDbSymbolTable
70
0
0
ENDTAB
0
TABLE
2
UCS
5
7
100
AcDbSymbolTable
70
0
0
ENDTAB
0
TABLE
2
APPID
5
9
100
AcDbSymbolTable
70
2
0
APPID
5
12
100
AcDbSymbolTableRecord
100
AcDbRegAppTableRecord
2
ACAD
70
0
0
ENDTAB
0
TABLE
2
DIMSTYLE
5
A
100
AcDbSymbolTable
70
1
0
ENDTAB
0
TABLE
2
BLOCK_RECORD
5
1
100
AcDbSymbolTable
70
1
0
BLOCK_RECORD
5
1F
100
AcDbSymbolTableRecord
100
AcDbBlockTableRecord
2
*MODEL_SPACE
0
BLOCK_RECORD
5
1B
100
AcDbSymbolTableRecord
100
AcDbBlockTableRecord
2
*PAPER_SPACE
0
ENDTAB
0
ENDSEC
0
SECTION
2
BLOCKS
0
BLOCK
5
20
100
AcDbEntity
100
AcDbBlockBegin
2
*MODEL_SPACE
0
ENDBLK
5
21
100
AcDbEntity
100
AcDbBlockEnd
0
BLOCK
5
1C
100
AcDbEntity
100
AcDbBlockBegin
2
*PAPER_SPACE
0
ENDBLK
5
1D
100
AcDbEntity
100
AcDbBlockEnd
0
ENDSEC
0
SECTION
2
ENTITIES
0
LWPOLYLINE
5
100
100
AcDbEntity
8
0
100
AcDbPolyline
90
116
70
1
43
0.0
10
150
20
6
10
141.5
20
6
10
141.5
20
3.1464465999999995
10
141.35355340000001
20
3
10
132.14644659999999
20
3
10
132
20
3.1464465999999995
10
132
20
6
10
123.5
20
6
10
123.5
20
3.1464465999999995
10
123.35355340000001
20
3
10
114.14644660000002
20
3
10
114
20
3.1464465999999995
10
114
20
6
10
105.5
20
6
10
105.5
20
3.1464465999999995
10
105.35355339999998
20
3
10
96.14644659999999
20
3
10
96
20
3.1464465999999995
10
96
20
6
10
87.5
20
6
10
87.5
20
3.1464465999999995
10
87.353553399999996
20
3
10
78.14644659999999
20
3
10
78
20
3.1464465999999995
10
78
20
6
10
69.5
20
6
10
69.5
20
3.1464465999999995
10
69.35355340000001
20
3
10
60.146446600000004
20
3
10
60
20
3.1464465999999995
10
60
20
6
10
51.5
20
6
10
51.5
20
3.1464465999999995
10
51.353553399999996
20
3
10
42.146446600000004
20
3
10
42
20
3.1464465999999995
10
42
20
6
10
33.5
20
6
10
33.5
20
3.1464465999999995
10
33.353553399999996
20
3
10
24.146446600000001
20
3
10
24
20
3.1464465999999995
10
24
20
6
10
15.499999999999998
20
6
10
15.499999999999998
20
3.1464465999999995
10
15.353553399999999
20
3
10
0.14644660000000001
20
3
10
0
20
3.1464465999999991
10
0
20
11.603553399999999
10
0.14644659999999976
20
11.75
10
3
20
11.749999999999998
10
3
20
20.25
10
0.14644660000000001
20
20.25
10
0
20
20.396446600000001
10
0
20
28.853553399999999
10
0.14644660000000087
20
29
10
15.353553399999999
20
29
10
15.499999999999998
20
28.853553399999999
10
15.499999999999998
20
26
10
24
20
26
10
24
20
28.853553400000003
10
24.146446600000001
20
29
10
33.353553399999996
20
29
10
33.5
20
28.853553399999999
10
33.5
20
26
10
42
20
26
10
42
20
28.853553400000003
10
42.146446600000004
20
29
10
51.353553400000003
20
28.999999999999993
10
51.5
20
28.853553399999999
10
51.5
20
26
10
60
20
26
10
60.000000000000007
20
28.853553400000003
10
60.146446600000012
20
29
10
69.35355340000001
20
28.999999999999993
10
69.5
20
28.853553399999999
10
69.5
20
26
10
78
20
26
10
78
20
28.853553400000003
10
78.14644659999999
20
29
10
87.353553399999996
20
29
10
87.5
20
28.853553399999999
10
87.5
20
26
10
96
20
26
10
96
20
28.853553400000003
10
96.146446599999976
20
29
10
105.35355339999998
20
29
10
105.5
20
28.853553399999999
10
105.5
20
26
10
114
20
26
10
114
20
28.853553399999999
10
114.14644660000002
20
29
10
123.35355340000001
20
29
10
123.5
20
28.853553399999999
10
123.5
20
26
10
132
20
26
10
132
20
28.853553399999999
10
132.14644659999999
20
29
10
141.35355340000001
20
28.999999999999993
10
141.5
20
28.853553399999999
10
141.5
20
26
10
150
20
26
10
149.99999999999997
20
28.853553400000003
10
150.14644659999999
20
29
10
165.35355340000001
20
28.999999999999993
10
165.5
20
28.853553399999999
10
165.5
20
20.396446600000001
10
165.35355340000001
20
20.25
10
162.5
20
20.250000000000004
10
162.5
20
11.75
10
165.35355340000001
20
11.75
10
165.5
20
11.603553399999999
10
165.5
20
3.1464465999999995
10
165.35355340000001
20
3
10
150.14644659999999
20
3
10
150
20
3.1464465999999995
0
LWPOLYLINE
5
101
100
AcDbEntity
8
0
100
AcDbPolyline
90
56
70
1
43
0.0
10
222
20
28.853553400000003
10
222.14644660000002
20
29
10
227.85355340000001
20
29
10
228
20
28.853553399999999
10
228
20
20.749999999999996
10
230.85355340000004
20
20.749999999999996
10
231
20
20.603553399999996
10
231
20
11.396446600000001
10
230.85355340000004
20
11.25
10
228
20
11.25
10
228
20
3.1464465999999995
10
227.85355340000001
20
3
10
222.14644660000002
20
3
10
222
20
3.1464465999999995
10
222
20
6
10
213.49999999999997
20
6
10
213.49999999999997
20
3.1464465999999995
10
213.35355340000004
20
3
10
204.14644659999999
20
3
10
204
20
3.1464465999999995
10
204
20
6
10
195.5
20
6
10
195.49999999999997
20
3.1464465999999995
10
195.35355340000001
20
3
10
186.14644659999999
20
3
10
186
20
3.1464465999999995
10
186
20
6
10
177.5
20
6
10
177.5
20
3.1464465999999995
10
177.35355340000001
20
3
10
171.64644659999999
20
3
10
171.5
20
3.1464466
10
171.5
20
11.25
10
168.64644659999999
20
11.25
10
168.5
20
11.396446600000001
10
168.5
20
20.603553399999996
10
168.64644659999996
20
20.749999999999996
10
171.5
20
20.749999999999996
10
171.5
20
28.853553399999999
10
171.64644659999999
20
29
10
177.35355340000001
20
28.999999999999993
10
177.5
20
28.853553399999999
10
177.5
20
26
10
186
20
26
10
186
20
28.853553400000003
10
186.14644659999999
20
29
10
195.35355339999998
20
29
10
195.5
20
28.853553399999999
10
195.5
20
26
10
204
20
26
10
204
20
28.853553399999999
10
204.14644659999996
20
29
10
213.35355340000001
20
28.999999999999993
10
213.49999999999997
20
28.853553399999999
10
213.49999999999997
20
26
10
222
20
26
0
LWPOLYLINE
5
102
100
AcDbEntity
8
0
100
AcDbPolyline
90
140
70
1
43
0.0
10
276.5
20
3.1464465999999995
10
276.35355340000001
20
3
10
267.14644659999999
20
3
10
267
20
3.1464465999999995
10
267
20
6
10
258.5
20
6
10
258.5
20
3.1464465999999995
10
258.35355340000001
20
3
10
249.14644659999996
20
3
10
249.00000000000003
20
3.1464465999999995
10
249.00000000000003
20
6
10
237.14644659999999
20
6
10
237
20
6.1464465999999991
10
237
20
11.5
10
234.14644659999996
20
11.5
10
234
20
11.646446600000003
10
234
20
20.853553399999999
10
234.14644659999996
20
21
10
237
20
21
10
237
20
29.5
10
234.14644659999996
20
29.500000000000007
10
234
20
29.646446600000004
10
234
20
38.853553399999996
10
234.14644659999996
20
39
10
237
20
39
10
237
20
47.5
10
234.14644659999996
20
47.500000000000007
10
234
20
47.646446600000012
10
234
20
56.853553399999996
10
234.14644659999996
20
57
10
237
20
57
10
237
20
62.353553399999996
10
237.14644659999999
20
62.5
10
249.00000000000003
20
62.5
10
249.00000000000003
20
65.353553399999996
10
249.14644659999996
20
65.5
10
258.35355340000001
20
65.5
10
258.5
20
65.353553399999996
10
258.5
20
62.5
10
267
20
62.5
10
267
20
65.353553399999996
10
267.14644659999999
20
65.5
10
276.35355340000001
20
65.5
10
276.5
20
65.353553399999996
10
276.5
20
62.5
10
285
20
62.5
10
285
20
65.353553399999996
10
285.14644659999999
20
65.5
10
294.35355340000001
20
65.5
10
294.5
20
65.353553399999996
10
294.5
20
62.5
10
303
20
62.5
10
303
20
65.353553399999996
10
303.14644659999993
20
65.5
10
312.35355340000001
20
65.5
10
312.5
20
65.353553399999996
10
312.5
20
62.5
10
321
20
62.5
10
321
20
65.353553399999996
10
321.14644659999999
20
65.5
10
330.35355340000001
20
65.5
10
330.5
20
65.353553399999996
10
330.5
20
62.5
10
339
20
62.5
10
339.00000000000006
20
65.353553399999996
10
339.14644659999999
20
65.5
10
348.35355340000001
20
65.5
10
348.5
20
65.353553399999996
10
348.5
20
62.5
10
356.99999999999994
20
62.5
10
356.99999999999994
20
65.353553399999996
10
357.14644659999999
20
65.5
10
366.35355340000001
20
65.5
10
366.5
20
65.353553399999996
10
366.5
20
62.5
10
375
20
62.5
10
375
20
65.353553399999996
10
375.14644659999999
20
65.5
10
384.35355340000001
20
65.5
10
384.49999999999994
20
65.353553399999996
10
384.5
20
62.5
10
396.35355340000001
20
62.5
10
396.5
20
62.353553399999996
10
396.5
20
57
10
399.35355340000007
20
56.999999999999993
10
399.5
20
56.853553399999996
10
399.5
20
47.646446600000012
10
399.35355340000001
20
47.5
10
396.5
20
47.5
10
396.5
20
39
10
399.35355340000001
20
39
10
399.5
20
38.853553399999996
10
399.49999999999994
20
29.646446599999997
10
399.35355340000001
20
29.5
10
396.5
20
29.5
10
396.5
20
21
10
399.35355340000001
20
21
10
399.5
20
20.853553399999999
10
399.5
20
11.646446600000003
10
399.35355340000001
20
11.5
10
396.5
20
11.5
10
396.5
20
6.1464465999999991
10
396.35355340000001
20
6
10
384.49999999999994
20
6
10
384.49999999999994
20
3.1464465999999995
10
384.35355340000001
20
3
10
375.14644659999999
20
3
10
375
20
3.1464465999999995
10
375
20
6
10
366.5
20
6
10
366.5
20
3.1464465999999995
10
366.35355339999995
20
3
10
357.14644659999999
20
3
10
356.99999999999994
20
3.1464465999999995
10
356.99999999999994
20
6
10
348.5
20
6
10
348.5
20
3.1464465999999995
10
348.35355340000001
20
3
10
339.14644659999993
20
3
10
339
20
3.1464465999999995
10
339
20
6
10
330.5
20
6
10
330.5
20
3.1464465999999995
10
330.35355339999995
20
3
10
321.14644659999999
20
3
10
321
20
3.1464465999999995
10
321
20
6
10
312.5
20
6
10
312.5
20
3.1464465999999995
10
312.35355340000001
20
3
10
303.14644659999999
20
3
10
303
20
3.1464465999999995
10
303
20
6
10
294.5
20
6
10
294.5
20
3.1464465999999995
10
294.35355340000001
20
3
10
285.14644659999999
20
3
10
285
20
3.1464465999999995
10
285
20
6
10
276.5
20
6
0
LWPOLYLINE
5
103
100
AcDbEntity
8
0
100
AcDbPolyline
90
116
70
1
43
0.0
10
15.499999999999998
20
35
10
15.499999999999998
20
32.146446600000004
10
15.353553399999999
20
32
10
0.14644660000000001
20
32
10
0
20
32.146446600000004
10
0
20
40.603553400000003
10
0.14644659999999976
20
40.75
10
3
20
40.749999999999993
10
3
20
49.25
10
0.14644660000000001
20
49.25
10
0
20
49.396446599999997
10
0
20
57.853553399999988
10
0.14644660000000087
20
58
10
15.353553399999999
20
58
10
15.499999999999998
20
57.853553399999988
10
15.499999999999998
20
54.999999999999993
10
24
20
54.999999999999993
10
24
20
57.853553399999996
10
24.146446600000001
20
58
10
33.353553399999996
20
58
10
33.5
20
57.853553399999988
10
33.5
20
54.999999999999993
10
42
20
54.999999999999993
10
42
20
57.853553399999988
10
42.146446600000004
20
58
10
51.353553400000003
20
57.999999999999986
10
51.5
20
57.853553399999988
10
51.5
20
54.999999999999993
10
60
20
54.999999999999993
10
60.000000000000007
20
57.853553399999996
10
60.146446600000012
20
58
10
69.35355340000001
20
57.999999999999986
10
69.5
20
57.853553399999988
10
69.5
20
54.999999999999993
10
78
20
54.999999999999993
10
78
20
57.853553399999996
10
78.14644659999999
20
58
10
87.353553399999996
20
58
10
87.5
20
57.853553399999988
10
87.5
20
54.999999999999993
10
96
20
54.999999999999993
10
96
20
57.853553399999996
10
96.14644659999999
20
58
10
105.35355339999998
20
57.999999999999986
10
105.5
20
57.853553399999988
10
105.5
20
54.999999999999993
10
114
20
54.999999999999993
10
114
20
57.853553399999988
10
114.14644660000002
20
58
10
123.35355340000001
20
58
10
123.5
20
57.853553399999988
10
123.5
20
54.999999999999993
10
132
20
54.999999999999993
10
132
20
57.853553399999996
10
132.14644659999999
20
58
10
141.35355340000001
20
57.999999999999986
10
141.5
20
57.853553399999988
10
141.5
20
54.999999999999993
10
150
20
54.999999999999993
10
150
20
57.853553399999988
10
150.14644659999999
20
58
10
165.35355340000001
20
57.999999999999986
10
165.5
20
57.853553399999988
10
165.5
20
49.396446599999997
10
165.35355340000001
20
49.25
10
162.5
20
49.25
10
162.5
20
40.75
10
165.35355340000001
20
40.75
10
165.5
20
40.603553399999996
10
165.5
20
32.146446600000004
10
165.35355340000001
20
32
10
150.14644659999999
20
31.999999999999996
10
150
20
32.146446600000004
10
150
20
35
10
141.5
20
35
10
141.5
20
32.146446600000004
10
141.35355340000001
20
32
10
132.14644659999999
20
31.999999999999996
10
132
20
32.146446600000004
10
132
20
35
10
123.5
20
35
10
123.5
20
32.146446600000004
10
123.35355340000001
20
32
10
114.14644660000002
20
32
10
114
20
32.146446600000004
10
114
20
35
10
105.5
20
35
10
105.5
20
32.146446600000004
10
105.35355340000001
20
32
10
96.14644659999999
20
31.999999999999996
10
96
20
32.146446600000004
10
96
20
35
10
87.5
20
35
10
87.5
20
32.146446600000004
10
87.353553399999996
20
32
10
78.14644659999999
20
32
10
78
20
32.146446600000004
10
78
20
35
10
69.5
20
35
10
69.5
20
32.146446600000004
10
69.35355340000001
20
32
10
60.146446600000004
20
31.999999999999996
10
60
20
32.146446600000004
10
60
20
35
10
51.5
20
35
10
51.499999999999993
20
32.146446600000004
10
51.353553399999996
20
32
10
42.146446600000004
20
32
10
42
20
32.146446600000004
10
42
20
35
10
33.5
20
35
10
33.5
20
32.146446600000004
10
33.353553399999996
20
32
10
24.146446600000001
20
32
10
24
20
32.146446600000004
10
24
20
35
0
LWPOLYLINE
5
104
100
AcDbEntity
8
0
100
AcDbPolyline
90
56
70
1
43
0.0
10
195.49999999999997
20
32.146446600000004
10
195.35355339999998
20
32
10
186.14644659999999
20
31.999999999999996
10
186
20
32.146446600000004
10
186
20
35
10
177.5
20
35
10
177.5
20
32.146446600000004
10
177.35355340000001
20
32
10
171.64644659999996
20
31.999999999999996
10
171.5
20
32.146446600000004
10
171.50000000000003
20
40.25
10
168.64644659999999
20
40.25
10
168.5
20
40.396446600000004
10
168.5
20
49.603553399999996
10
168.64644659999996
20
49.75
10
171.5
20
49.75
10
171.50000000000003
20
57.853553399999996
10
171.64644659999999
20
58
10
177.35355340000001
20
57.999999999999986
10
177.5
20
57.853553399999988
10
177.50000000000003
20
54.999999999999993
10
186
20
54.999999999999993
10
186
20
57.853553399999988
10
186.14644659999999
20
58
10
195.35355339999998
20
58
10
195.5
20
57.853553399999988
10
195.5
20
54.999999999999993
10
204
20
54.999999999999993
10
204
20
57.853553399999988
10
204.14644659999999
20
58
10
213.35355340000001
20
57.999999999999986
10
213.49999999999997
20
57.853553399999988
10
213.49999999999997
20
54.999999999999993
10
222
20
54.999999999999993
10
222
20
57.853553399999988
10
222.14644660000002
20
58
10
227.85355340000001
20
58
10
228
20
57.853553399999988
10
228
20
49.75
10
230.85355340000004
20
49.75
10
231
20
49.603553399999996
10
231
20
40.396446600000004
10
230.85355340000004
20
40.25
10
228
20
40.249999999999993
10
228
20
32.146446600000004
10
227.85355340000001
20
32
10
222.14644660000002
20
31.999999999999996
10
222
20
32.146446600000004
10
222
20
35
10
213.49999999999997
20
35
10
213.49999999999997
20
32.146446600000004
10
213.35355340000004
20
32
10
204.14644659999999
20
31.999999999999996
10
204
20
32.146446600000004
10
204
20
35
10
195.5
20
35
0
LWPOLYLINE
5
105
100
AcDbEntity
8
0
100
AcDbPolyline
90
140
70
1
43
0.0
10
276.5
20
68.64644659999999
10
276.35355340000001
20
68.5
10
267.14644659999999
20
68.5
10
267
20
68.64644659999999
10
267
20
71.5
10
258.5
20
71.5
10
258.5
20
68.64644659999999
10
258.35355340000001
20
68.5
10
249.14644659999999
20
68.5
10
249.00000000000003
20
68.64644659999999
10
249.00000000000003
20
71.5
10
237.14644659999999
20
71.5
10
237
20
71.64644659999999
10
237
20
77
10
234.14644659999996
20
77
10
234
20
77.14644659999999
10
234
20
86.35355340000001
10
234.14644659999996
20
86.5
10
237
20
86.5
10
237
20
95
10
234.14644659999996
20
95
10
234
20
95.14644659999999
10
234
20
104.35355340000001
10
234.14644659999996
20
104.5
10
237
20
104.5
10
237
20
112.99999999999999
10
234.14644659999996
20
112.99999999999999
10
234
20
113.1464466
10
234
20
122.35355339999998
10
234.14644659999996
20
122.49999999999999
10
237
20
122.49999999999999
10
237
20
127.85355339999998
10
237.14644659999999
20
128
10
249.00000000000003
20
128
10
249.00000000000003
20
130.85355340000001
10
249.14644659999996
20
131
10
258.35355340000001
20
131
10
258.5
20
130.85355340000001
10
258.5
20
128
10
267
20
128
10
267
20
130.85355340000001
10
267.14644659999999
20
131
10
276.35355340000001
20
131
10
276.5
20
130.85355340000001
10
276.5
20
128
10
285
20
128
10
285
20
130.85355340000001
10
285.14644659999999
20
131
10
294.35355340000001
20
131
10
294.5
20
130.85355340000001
10
294.5
20
128
10
303
20
128
10
303
20
130.85355340000001
10
303.14644659999993
20
131
10
312.35355340000001
20
131
10
312.5
20
130.85355340000001
10
312.5
20
128
10
321
20
128
10
321
20
130.85355340000001
10
321.14644659999999
20
131
10
330.35355339999995
20
131
10
330.5
20
130.85355340000001
10
330.5
20
128
10
339
20
128
10
339
20
130.85355340000001
10
339.14644659999999
20
131
10
348.35355340000001
20
131
10
348.5
20
130.85355340000001
10
348.5
20
128
10
356.99999999999994
20
128
10
356.99999999999994
20
130.85355340000001
10
357.14644660000005
20
131
10
366.35355340000001
20
131
10
366.5
20
130.85355340000001
10
366.5
20
128
10
375
20
128
10
375
20
130.85355340000001
10
375.14644659999999
20
131
10
384.35355340000001
20
131
10
384.49999999999994
20
130.85355340000001
10
384.5
20
128
10
396.35355340000001
20
128
10
396.5
20
127.85355339999997
10
396.5
20
122.49999999999999
10
399.35355340000001
20
122.49999999999999
10
399.5
20
122.3535534
10
399.49999999999994
20
113.1464466
10
399.35355340000001
20
112.99999999999999
10
396.5
20
112.99999999999999
10
396.5
20
104.5
10
399.35355340000007
20
104.50000000000001
10
399.5
20
104.35355340000001
10
399.5
20
95.14644659999999
10
399.35355340000001
20
95
10
396.5
20
95
10
396.5
20
86.5
10
399.35355340000007
20
86.5
10
399.5
20
86.35355340000001
10
399.5
20
77.14644659999999
10
399.35355340000001
20
77
10
396.5
20
77
10
396.5
20
71.64644659999999
10
396.35355340000001
20
71.5
10
384.49999999999994
20
71.5
10
384.49999999999994
20
68.64644659999999
10
384.35355340000001
20
68.5
10
375.14644659999999
20
68.5
10
375
20
68.64644659999999
10
375
20
71.5
10
366.5
20
71.5
10
366.5
20
68.64644659999999
10
366.35355339999995
20
68.5
10
357.14644659999999
20
68.5
10
356.99999999999994
20
68.64644659999999
10
356.99999999999994
20
71.5
10
348.5
20
71.5
10
348.5
20
68.64644659999999
10
348.35355340000001
20
68.5
10
339.14644659999999
20
68.5
10
339
20
68.64644659999999
10
339
20
71.5
10
330.5
20
71.5
10
330.5
20
68.64644659999999
10
330.35355340000001
20
68.5
10
321.14644659999999
20
68.5
10
321
20
68.64644659999999
10
321
20
71.5
10
312.5
20
71.5
10
312.5
20
68.64644659999999
10
312.35355340000001
20
68.5
10
303.14644659999993
20
68.5
10
303
20
68.64644659999999
10
303
20
71.5
10
294.5
20
71.5
10
294.5
20
68.64644659999999
10
294.35355340000007
20
68.5
10
285.14644659999999
20
68.5
10
285
20
68.64644659999999
10
285
20
71.5
10
276.5
20
71.5
0
CIRCLE
5
106
100
AcDbEntity
8
0
100
AcDbCircle
10
8.198000254259501
20
18.000000000000021
30
0
40
0.75000000000000189
210
0
220
-0
230
1
0
CIRCLE
5
107
100
AcDbEntity
8
0
100
AcDbCircle
10
47.011730314158143
20
20.500096505266875
30
0
40
0.75000000000000189
210
0
220
-0
230
1
0
CIRCLE
5
108
100
AcDbEntity
8
0
100
AcDbCircle
10
23.174328670156079
20
20.500000000000011
30
0
40
0.75000000000000189
210
0
220
-0
230
1
0
CIRCLE
5
109
100
AcDbEntity
8
0
100
AcDbCircle
10
35.198000254259512
20
18.000000000000021
30
0
40
0.75000000000000189
210
0
220
-0
230
1
0
CIRCLE
5
110
100
AcDbEntity
8
0
100
AcDbCircle
10
62.026199954425266
20
17.999796665356975
30
0
40
0.75000000000000189
210
0
220
-0
230
1
0
CIRCLE
5
111
100
AcDbEntity
8
0
100
AcDbCircle
10
79.65619995442529
20
17.999796665356975
30
0
40
0.75000000000000189
210
0
220
-0
230
1
0
CIRCLE
5
112
100
AcDbEntity
8
0
100
AcDbCircle
10
106.54328735439159
20
18.003987113476452
30
0
40
0.75000000000000189
210
0
220
-0
230
1
0
CIRCLE
5
113
100
AcDbEntity
8
0
100
AcDbCircle
10
94.640008520567832
20
20.500001223059368
30
0
40
0.75000000000000189
210
0
220
-0
230
1
0
CIRCLE
5
114
100
AcDbEntity
8
0
100
AcDbCircle
10
118.45432867015604
20
20.500000000000011
30
0
40
0.75000000000000189
210
0
220
-0
230
1
0
CIRCLE
5
115
100
AcDbEntity
8
0
100
AcDbCircle
10
130.34328735439155
20
18.003987113476452
30
0
40
0.75000000000000189
210
0
220
-0
230
1
0
CIRCLE
5
116
100
AcDbEntity
8
0
100
AcDbCircle
10
142.29173031415817
20
20.500096505266875
30
0
40
0.75000000000000189
210
0
220
-0
230
1
0
CIRCLE
5
117
100
AcDbEntity
8
0
100
AcDbCircle
10
157.30097202081745
20
17.98917747474599
30
0
40
0.75000000000000189
210
0
220
-0
230
1
0
CIRCLE
5
118
100
AcDbEntity
8
0
100
AcDbCircle
10
316.75
20
34.249999999999986
30
0
40
15.124999999999995
210
0
220
0
230
1
0
LWPOLYLINE
5
119
100
AcDbEntity
8
0
100
AcDbPolyline
90
4
70
1
43
0.0
10
273.72499999999997
20
37.650000000000006
10
280.02500000000003
20
37.650000000000006
10
280.02499999999998
20
31.350000000000012
10
273.72499999999997
20
31.350000000000012
0
LWPOLYLINE
5
120
100
AcDbEntity
8
0
100
AcDbPolyline
90
4
70
1
43
0.0
10
353.97499999999991
20
31.349999999999984
10
353.97499999999991
20
37.649999999999977
10
360.27500000000003
20
37.649999999999977
10
360.27500000000003
20
31.349999999999984
0
ENDSEC
0
SECTION
2
OBJECTS
0
DICTIONARY
5
C
100
AcDbDictionary
3
ACAD_GROUP
350
D
3
ACAD_MLINESTYLE
350
17
0
DICTIONARY
5
D
100
AcDbDictionary
0
DICTIONARY
5
1A
330
C
100
AcDbDictionary
0
DICTIONARY
5
17
100
AcDbDictionary
0
ENDSEC
0
EOF
