0
SECTION
2
HEADER
9
$INSUNITS
70
4
9
$ACADVER
1
AC1014
9
$HANDSEED
5
FFFF
0
ENDSEC
0
SECTION
2
TABLES
0
TABLE
2
VPORT
5
8
100
AcDbSymbolTable
0
ENDTAB
0
TABLE
2
LTYPE
5
5
100
AcDbSymbolTable
0
LTYPE
5
14
100
AcDbSymbolTableRecord
100
AcDbLinetypeTableRecord
2
BYBLOCK
70
0
0
LTYPE
5
15
100
AcDbSymbolTableRecord
100
AcDbLinetypeTableRecord
2
BYLAYER
70
0
0
ENDTAB
0
TABLE
2
LAYER
5
2
100
AcDbSymbolTable
70
2
0
LAYER
5
50
100
AcDbSymbolTableRecord
100
AcDbLayerTableRecord
2
0
70
0
6
CONTINUOUS
0
ENDTAB
0
TABLE
2
STYLE
5
3
100
AcDbSymbolTable
70
1
0
STYLE
5
11
100
AcDbSymbolTableRecord
100
AcDbTextStyleTableRecord
2
STANDARD
70
0
0
ENDTAB
0
TABLE
2
VIEW
5
6
100
AcDbSymbolTable
70
0
0
ENDTAB
0
TABLE
2
UCS
5
7
100
AcDbSymbolTable
70
0
0
ENDTAB
0
TABLE
2
APPID
5
9
100
AcDbSymbolTable
70
2
0
APPID
5
12
100
AcDbSymbolTableRecord
100
AcDbRegAppTableRecord
2
ACAD
70
0
0
ENDTAB
0
TABLE
2
DIMSTYLE
5
A
100
AcDbSymbolTable
70
1
0
ENDTAB
0
TABLE
2
BLOCK_RECORD
5
1
100
AcDbSymbolTable
70
1
0
BLOCK_RECORD
5
1F
100
AcDbSymbolTableRecord
100
AcDbBlockTableRecord
2
*MODEL_SPACE
0
BLOCK_RECORD
5
1B
100
AcDbSymbolTableRecord
100
AcDbBlockTableRecord
2
*PAPER_SPACE
0
ENDTAB
0
ENDSEC
0
SECTION
2
BLOCKS
0
BLOCK
5
20
100
AcDbEntity
100
AcDbBlockBegin
2
*MODEL_SPACE
0
ENDBLK
5
21
100
AcDbEntity
100
AcDbBlockEnd
0
BLOCK
5
1C
100
AcDbEntity
100
AcDbBlockBegin
2
*PAPER_SPACE
0
ENDBLK
5
1D
100
AcDbEntity
100
AcDbBlockEnd
0
ENDSEC
0
SECTION
2
ENTITIES
0
LWPOLYLINE
5
100
100
AcDbEntity
8
0
100
AcDbPolyline
90
78
70
1
43
0.0
10
132
20
3
10
132
20
6
10
123
20
6
10
123
20
3
10
114
20
3
10
114
20
6
10
105
20
6
10
104.99999999999999
20
3
10
96
20
3
10
96
20
6
10
87
20
6
10
87
20
3
10
78
20
3
10
78
20
6
10
69
20
6
10
69
20
3
10
60
20
3
10
60
20
6
10
51
20
6
10
51
20
3
10
42
20
3
10
42
20
6
10
33
20
6
10
33
20
3
10
24
20
3
10
24
20
6
10
15
20
6
10
15
20
3
10
0
20
3.0000000000000004
10
0
20
11.25
10
3
20
11.249999999999998
10
3
20
20.25
10
0
20
20.250000000000004
10
0
20
28.5
10
6.0000000000000009
20
28.5
10
15
20
28.5
10
15
20
25.5
10
24
20
25.5
10
24
20
28.5
10
33
20
28.5
10
33
20
25.5
10
42
20
25.5
10
42
20
28.5
10
51
20
28.5
10
51
20
25.5
10
60
20
25.5
10
60
20
28.5
10
69
20
28.5
10
69
20
25.5
10
78
20
25.5
10
78
20
28.5
10
87
20
28.5
10
87
20
25.5
10
96
20
25.5
10
96.000000000000014
20
28.5
10
105
20
28.5
10
105
20
25.5
10
114
20
25.5
10
114
20
28.5
10
123
20
28.5
10
123
20
25.5
10
132
20
25.5
10
132
20
28.5
10
141
20
28.5
10
141
20
25.5
10
150
20
25.5
10
150
20
28.5
10
165
20
28.499999999999996
10
165
20
20.25
10
162
20
20.25
10
162
20
11.25
10
165
20
11.25
10
165
20
3
10
159
20
3
10
150
20
3
10
150
20
6
10
141
20
6
10
141
20
3
0
LWPOLYLINE
5
101
100
AcDbEntity
8
0
100
AcDbPolyline
90
36
70
1
43
0.0
10
168
20
11.249999999999998
10
168
20
20.25
10
171
20
20.250000000000004
10
171
20
28.5
10
176.5
20
28.5
10
176.5
20
25.5
10
185.5
20
25.5
10
185.49999999999997
20
28.5
10
194.5
20
28.5
10
194.5
20
25.5
10
203.49999999999997
20
25.5
10
203.49999999999997
20
28.5
10
212.5
20
28.5
10
212.5
20
25.5
10
221.5
20
25.5
10
221.50000000000003
20
28.5
10
227.00000000000003
20
28.499999999999996
10
227.00000000000003
20
20.25
10
230
20
20.250000000000004
10
230
20
11.25
10
227.00000000000003
20
11.25
10
227
20
3
10
221.5
20
3
10
221.5
20
6
10
212.5
20
6
10
212.5
20
3
10
203.49999999999997
20
3
10
203.49999999999997
20
6
10
194.5
20
6
10
194.5
20
3
10
185.5
20
3
10
185.5
20
6
10
176.5
20
6
10
176.5
20
3
10
171
20
3.0000000000000004
10
171
20
11.25
0
LWPOLYLINE
5
102
100
AcDbEntity
8
0
100
AcDbPolyline
90
94
70
1
43
0.0
10
329
20
6
10
329
20
3
10
319.99999999999994
20
3
10
319.99999999999994
20
6
10
311
20
6
10
311
20
3
10
302
20
3
10
302
20
6
10
293
20
6
10
293
20
3
10
284
20
3
10
284
20
6
10
275
20
6
10
275
20
3
10
266
20
3
10
266
20
6
10
257
20
6
10
257
20
3
10
247.99999999999997
20
3
10
247.99999999999997
20
6
10
236
20
6
10
236
20
11.5
10
233
20
11.5
10
233
20
20.5
10
236
20
20.5
10
236
20
29.5
10
233
20
29.5
10
233
20
38.5
10
236
20
38.5
10
236
20
47.5
10
233
20
47.5
10
233
20
56.499999999999993
10
236
20
56.499999999999993
10
236
20
61.999999999999993
10
239.00000000000003
20
61.999999999999993
10
247.99999999999997
20
61.999999999999993
10
247.99999999999997
20
65
10
257
20
64.999999999999986
10
256.99999999999994
20
61.999999999999993
10
266
20
61.999999999999993
10
266
20
65
10
275
20
65
10
274.99999999999994
20
61.999999999999993
10
284
20
61.999999999999993
10
284
20
65
10
293
20
65
10
293
20
61.999999999999993
10
302
20
62
10
302
20
65
10
311
20
65
10
311
20
61.999999999999993
10
319.99999999999994
20
61.999999999999993
10
319.99999999999994
20
65
10
329
20
65
10
329
20
61.999999999999993
10
338
20
61.999999999999993
10
338.00000000000006
20
65
10
347
20
64.999999999999986
10
347
20
61.999999999999993
10
356
20
62
10
356
20
65
10
365
20
65
10
365
20
61.999999999999993
10
374
20
61.999999999999993
10
374
20
65
10
383.00000000000006
20
64.999999999999986
10
383
20
61.999999999999993
10
395
20
61.999999999999993
10
395
20
56.499999999999993
10
398
20
56.499999999999993
10
398
20
47.5
10
395
20
47.5
10
395
20
38.5
10
398
20
38.5
10
398
20
29.5
10
395
20
29.5
10
395
20
20.5
10
398
20
20.5
10
398
20
11.5
10
395
20
11.5
10
395
20
6
10
392
20
6
10
383.00000000000006
20
6
10
383
20
3
10
374
20
3
10
374
20
6
10
365
20
6
10
365
20
3
10
356
20
3
10
356
20
6
10
347
20
6
10
347
20
3
10
338
20
3
10
338
20
6
0
LWPOLYLINE
5
103
100
AcDbEntity
8
0
100
AcDbPolyline
90
78
70
1
43
0.0
10
123
20
53.999999999999993
10
132
20
53.999999999999993
10
132
20
57
10
141
20
56.999999999999993
10
141
20
53.999999999999993
10
150
20
53.999999999999993
10
150
20
57
10
165
20
57
10
165
20
48.75
10
162
20
48.75
10
162
20
39.75
10
165
20
39.750000000000007
10
165
20
31.500000000000004
10
159
20
31.500000000000004
10
150
20
31.500000000000004
10
150
20
34.5
10
141
20
34.5
10
141
20
31.500000000000004
10
132
20
31.500000000000004
10
132
20
34.5
10
123
20
34.5
10
123
20
31.500000000000004
10
114
20
31.500000000000004
10
114
20
34.5
10
105
20
34.5
10
104.99999999999999
20
31.500000000000004
10
96
20
31.500000000000004
10
96
20
34.5
10
87
20
34.5
10
87
20
31.500000000000004
10
78
20
31.500000000000004
10
78
20
34.5
10
69
20
34.5
10
69
20
31.500000000000004
10
60
20
31.500000000000004
10
60
20
34.5
10
51
20
34.5
10
51
20
31.500000000000004
10
42
20
31.500000000000004
10
42
20
34.5
10
33
20
34.5
10
33
20
31.500000000000004
10
24
20
31.500000000000004
10
24
20
34.5
10
15
20
34.5
10
15
20
31.500000000000004
10
0
20
31.500000000000004
10
0
20
39.75
10
3
20
39.75
10
3
20
48.75
10
0
20
48.75
10
0
20
57
10
6.0000000000000009
20
57
10
15
20
56.999999999999993
10
15
20
53.999999999999993
10
24
20
53.999999999999993
10
24
20
57
10
33
20
56.999999999999993
10
33
20
53.999999999999993
10
42
20
54
10
42
20
57
10
51
20
56.999999999999993
10
51
20
53.999999999999993
10
60
20
53.999999999999993
10
60
20
57
10
69
20
57
10
69
20
53.999999999999993
10
78
20
53.999999999999993
10
78
20
57
10
87
20
57
10
87
20
53.999999999999993
10
96
20
54
10
96
20
57
10
105
20
57
10
105
20
53.999999999999993
10
114
20
53.999999999999993
10
114
20
57
10
123
20
57
0
LWPOLYLINE
5
104
100
AcDbEntity
8
0
100
AcDbPolyline
90
36
70
1
43
0.0
10
171
20
48.75
10
171
20
57
10
176.5
20
57
10
176.5
20
53.999999999999993
10
185.5
20
53.999999999999993
10
185.5
20
57
10
194.5
20
56.999999999999993
10
194.5
20
53.999999999999993
10
203.49999999999997
20
54
10
203.49999999999997
20
57
10
212.5
20
57
10
212.49999999999997
20
53.999999999999993
10
221.5
20
54
10
221.5
20
57
10
227.00000000000003
20
57
10
227
20
48.75
10
230
20
48.75
10
230.00000000000003
20
39.75
10
227.00000000000003
20
39.75
10
227
20
31.500000000000004
10
221.5
20
31.500000000000004
10
221.5
20
34.5
10
212.5
20
34.5
10
212.5
20
31.500000000000004
10
203.49999999999997
20
31.500000000000004
10
203.49999999999997
20
34.5
10
194.5
20
34.5
10
194.50000000000003
20
31.500000000000004
10
185.5
20
31.500000000000004
10
185.5
20
34.5
10
176.5
20
34.5
10
176.5
20
31.500000000000004
10
171
20
31.500000000000004
10
171
20
39.75
10
168
20
39.75
10
168
20
48.75
0
LWPOLYLINE
5
105
100
AcDbEntity
8
0
100
AcDbPolyline
90
94
70
1
43
0.0
10
395
20
71
10
392
20
71
10
383.00000000000006
20
71
10
383.00000000000006
20
68
10
374
20
68
10
374
20
71
10
365
20
71
10
365
20
68
10
356
20
68
10
356
20
71
10
347
20
71
10
347
20
68
10
338
20
68
10
338
20
71
10
329
20
71
10
329
20
68
10
319.99999999999994
20
68
10
319.99999999999994
20
71
10
311
20
71
10
311.00000000000006
20
68
10
302
20
68
10
302
20
71
10
293
20
71
10
293
20
68
10
284
20
68
10
284
20
71
10
275
20
71
10
275
20
68
10
266
20
68
10
266
20
71
10
257
20
71
10
257
20
68
10
247.99999999999997
20
68
10
247.99999999999997
20
71
10
236
20
71
10
236
20
76.5
10
233
20
76.5
10
233
20
85.5
10
236
20
85.5
10
236
20
94.5
10
233
20
94.500000000000014
10
233
20
103.5
10
236
20
103.5
10
236
20
112.5
10
233
20
112.5
10
233
20
121.5
10
236
20
121.5
10
236
20
127
10
239.00000000000003
20
127
10
247.99999999999997
20
127
10
247.99999999999997
20
130
10
257
20
130
10
257
20
127
10
266
20
127
10
266
20
130
10
275
20
130
10
275
20
127
10
284
20
127
10
284
20
130
10
293
20
130
10
293
20
127
10
302
20
127
10
302
20
130
10
311
20
130
10
311
20
127
10
319.99999999999994
20
127
10
319.99999999999994
20
130
10
329
20
130
10
329
20
127
10
338
20
127
10
338
20
130
10
347
20
130
10
347
20
127
10
356
20
127
10
356
20
130
10
365
20
130
10
365
20
127
10
374
20
127
10
374
20
130
10
383.00000000000006
20
130
10
383
20
127
10
395
20
127
10
395
20
121.5
10
398
20
121.5
10
398
20
112.5
10
395
20
112.5
10
395
20
103.5
10
398
20
103.49999999999997
10
398
20
94.5
10
395
20
94.5
10
395
20
85.5
10
398
20
85.5
10
398
20
76.5
10
395
20
76.5
0
LWPOLYLINE
5
106
100
AcDbEntity
8
0
100
AcDbPolyline
90
4
70
1
43
0.0
10
358.77499999999998
20
37.149999999999984
10
358.77499999999998
20
30.849999999999987
10
352.47499999999997
20
30.849999999999987
10
352.47499999999997
20
37.149999999999949
0
CIRCLE
5
107
100
AcDbEntity
8
0
100
AcDbCircle
10
315.5
20
33.999999999999993
30
0
40
15.124999999999993
210
0
220
0
230
1
0
LWPOLYLINE
5
108
100
AcDbEntity
8
0
100
AcDbPolyline
90
4
70
1
43
0.0
10
278.52499999999998
20
37.150000000000013
10
278.52500000000009
20
30.850000000001202
10
272.22499999999997
20
30.850000000000012
10
272.22499999999997
20
37.150000000000013
0
CIRCLE
5
109
100
AcDbEntity
8
0
100
AcDbCircle
10
33.204032244579125
20
17.077626791448569
30
0
40
0
210
0
220
0
230
1
0
CIRCLE
5
110
100
AcDbEntity
8
0
100
AcDbCircle
10
45.017762304477777
20
19.57772329671543
30
0
40
0
210
0
220
0
230
1
0
CIRCLE
5
111
100
AcDbEntity
8
0
100
AcDbCircle
10
60.032231944744879
20
17.077423456805533
30
0
40
0
210
0
220
0
230
1
0
CIRCLE
5
112
100
AcDbEntity
8
0
100
AcDbCircle
10
77.662231944744846
20
17.077423456805533
30
0
40
0
210
0
220
0
230
1
0
CIRCLE
5
113
100
AcDbEntity
8
0
100
AcDbCircle
10
92.646040510887374
20
19.577628014507937
30
0
40
0
210
0
220
0
230
1
0
CIRCLE
5
114
100
AcDbEntity
8
0
100
AcDbCircle
10
104.54931934471114
20
17.081613904925021
30
0
40
0
210
0
220
0
230
1
0
CIRCLE
5
115
100
AcDbEntity
8
0
100
AcDbCircle
10
116.4603606604756
20
19.577626791448576
30
0
40
0
210
0
220
0
230
1
0
CIRCLE
5
116
100
AcDbEntity
8
0
100
AcDbCircle
10
128.34931934471109
20
17.081613904925025
30
0
40
0
210
0
220
0
230
1
0
CIRCLE
5
117
100
AcDbEntity
8
0
100
AcDbCircle
10
140.29776230447769
20
19.577723296715444
30
0
40
0
210
0
220
0
230
1
0
CIRCLE
5
118
100
AcDbEntity
8
0
100
AcDbCircle
10
155.30700401113694
20
17.066804266194563
30
0
40
0
210
0
220
0
230
1
0
CIRCLE
5
119
100
AcDbEntity
8
0
100
AcDbCircle
10
7.1891669365815503
20
17.751511344623758
30
0
40
0.75000000000000133
210
0
220
0
230
1
0
CIRCLE
5
120
100
AcDbEntity
8
0
100
AcDbCircle
10
22.174328670156065
20
20.250000000000014
30
0
40
0
210
0
220
0
230
1
0
CIRCLE
5
121
100
AcDbEntity
8
0
100
AcDbCircle
10
34.198000254259483
20
17.750000000000014
30
0
40
0
210
0
220
0
230
1
0
CIRCLE
5
122
100
AcDbEntity
8
0
100
AcDbCircle
10
46.01173031415815
20
20.250096505266875
30
0
40
0
210
0
220
0
230
1
0
CIRCLE
5
123
100
AcDbEntity
8
0
100
AcDbCircle
10
61.026199954425252
20
17.749796665356971
30
0
40
0
210
0
220
0
230
1
0
CIRCLE
5
124
100
AcDbEntity
8
0
100
AcDbCircle
10
78.656199954425233
20
17.749796665356971
30
0
40
0
210
0
220
0
230
1
0
CIRCLE
5
125
100
AcDbEntity
8
0
100
AcDbCircle
10
93.640008520567775
20
20.250001223059371
30
0
40
0
210
0
220
0
230
1
0
CIRCLE
5
126
100
AcDbEntity
8
0
100
AcDbCircle
10
105.54328735439155
20
17.753987113476455
30
0
40
0
210
0
220
0
230
1
0
CIRCLE
5
127
100
AcDbEntity
8
0
100
AcDbCircle
10
117.45432867015603
20
20.250000000000014
30
0
40
0
210
0
220
0
230
1
0
CIRCLE
5
128
100
AcDbEntity
8
0
100
AcDbCircle
10
129.34328735439155
20
17.753987113476455
30
0
40
0
210
0
220
0
230
1
0
CIRCLE
5
129
100
AcDbEntity
8
0
100
AcDbCircle
10
141.29173031415812
20
20.250096505266875
30
0
40
0
210
0
220
0
230
1
0
CIRCLE
5
130
100
AcDbEntity
8
0
100
AcDbCircle
10
156.3009720208174
20
17.73917747474599
30
0
40
0
210
0
220
0
230
1
0
ENDSEC
0
SECTION
2
OBJECTS
0
DICTIONARY
5
C
100
AcDbDictionary
3
ACAD_GROUP
350
D
3
ACAD_MLINESTYLE
350
17
0
DICTIONARY
5
D
100
AcDbDictionary
0
DICTIONARY
5
1A
330
C
100
AcDbDictionary
0
DICTIONARY
5
17
100
AcDbDictionary
0
ENDSEC
0
EOF
