0
SECTION
2
HEADER
9
$INSUNITS
70
4
9
$ACADVER
1
AC1014
9
$HANDSEED
5
FFFF
0
ENDSEC
0
SECTION
2
TABLES
0
TABLE
2
VPORT
5
8
100
AcDbSymbolTable
0
ENDTAB
0
TABLE
2
LTYPE
5
5
100
AcDbSymbolTable
0
LTYPE
5
14
100
AcDbSymbolTableRecord
100
AcDbLinetypeTableRecord
2
BYBLOCK
70
0
0
LTYPE
5
15
100
AcDbSymbolTableRecord
100
AcDbLinetypeTableRecord
2
BYLAYER
70
0
0
ENDTAB
0
TABLE
2
LAYER
5
2
100
AcDbSymbolTable
70
2
0
LAYER
5
50
100
AcDbSymbolTableRecord
100
AcDbLayerTableRecord
2
0
70
0
6
CONTINUOUS
0
ENDTAB
0
TABLE
2
STYLE
5
3
100
AcDbSymbolTable
70
1
0
STYLE
5
11
100
AcDbSymbolTableRecord
100
AcDbTextStyleTableRecord
2
STANDARD
70
0
0
ENDTAB
0
TABLE
2
VIEW
5
6
100
AcDbSymbolTable
70
0
0
ENDTAB
0
TABLE
2
UCS
5
7
100
AcDbSymbolTable
70
0
0
ENDTAB
0
TABLE
2
APPID
5
9
100
AcDbSymbolTable
70
2
0
APPID
5
12
100
AcDbSymbolTableRecord
100
AcDbRegAppTableRecord
2
ACAD
70
0
0
ENDTAB
0
TABLE
2
DIMSTYLE
5
A
100
AcDbSymbolTable
70
1
0
ENDTAB
0
TABLE
2
BLOCK_RECORD
5
1
100
AcDbSymbolTable
70
1
0
BLOCK_RECORD
5
1F
100
AcDbSymbolTableRecord
100
AcDbBlockTableRecord
2
*MODEL_SPACE
0
BLOCK_RECORD
5
1B
100
AcDbSymbolTableRecord
100
AcDbBlockTableRecord
2
*PAPER_SPACE
0
ENDTAB
0
ENDSEC
0
SECTION
2
BLOCKS
0
BLOCK
5
20
100
AcDbEntity
100
AcDbBlockBegin
2
*MODEL_SPACE
0
ENDBLK
5
21
100
AcDbEntity
100
AcDbBlockEnd
0
BLOCK
5
1C
100
AcDbEntity
100
AcDbBlockBegin
2
*PAPER_SPACE
0
ENDBLK
5
1D
100
AcDbEntity
100
AcDbBlockEnd
0
ENDSEC
0
SECTION
2
ENTITIES
0
LWPOLYLINE
5
100
100
AcDbEntity
8
0
100
AcDbPolyline
90
6
70
1
43
0.0
10
75.00000111758709
20
-25.00093499859706
10
90.891890551358017
20
-25.00093499859706
10
90.899997968226671
20
-78.799998238682747
10
97.061899048598349
20
-78.799998238682747
10
97.061899048598349
20
-113.19999746978283
10
75.00000111758709
20
-113.19999746978283
0
LWPOLYLINE
5
101
100
AcDbEntity
8
0
100
AcDbPolyline
90
6
70
1
43
0.0
10
144.70717919541713
20
-25.00093499859706
10
128.8152897616462
20
-25.00093499859706
10
128.80718234477754
20
-78.799998238682747
10
122.64528126440587
20
-78.799998238682747
10
122.64528126440587
20
-113.19999746978283
10
144.70717919541713
20
-113.19999746978283
0
LWPOLYLINE
5
102
100
AcDbEntity
8
0
100
AcDbPolyline
90
8
70
1
43
0.0
10
104.99999765306711
20
-78.799998238682747
10
104.99999765306711
20
-24.999999441206455
10
114.70617781047758
20
-24.999999441206455
10
114.70617781047758
20
-78.80267434580297
10
120.88108864367757
20
-78.799998238682747
10
120.88108864367757
20
-113.19999746978283
10
98.830004694173113
20
-113.19999746978283
10
98.830004694173113
20
-78.799998238682747
0
LWPOLYLINE
5
103
100
AcDbEntity
8
0
100
AcDbPolyline
90
8
70
1
43
0.0
10
176.44499765306711
20
-24.999999441206455
10
186.15117781047758
20
-24.999999441206455
10
186.15117781047758
20
-78.80267434580297
10
192.32608864367759
20
-78.799998238682747
10
192.32608864367759
20
-113.19999746978283
10
170.27500469417311
20
-113.19999746978283
10
170.27500469417311
20
-78.799998238682747
10
176.44499765306711
20
-78.799998238682747
0
LWPOLYLINE
5
104
100
AcDbEntity
8
0
100
AcDbPolyline
90
8
70
1
43
0.0
10
200.2599976530671
20
-24.999999441206455
10
209.9661778104776
20
-24.999999441206455
10
209.9661778104776
20
-78.80267434580297
10
216.14108864367756
20
-78.799998238682747
10
216.14108864367756
20
-113.19999746978283
10
194.0900046941731
20
-113.19999746978283
10
194.0900046941731
20
-78.799998238682747
10
200.2599976530671
20
-78.799998238682747
0
LWPOLYLINE
5
105
100
AcDbEntity
8
0
100
AcDbPolyline
90
6
70
1
43
0.0
10
224.06218234477751
20
-78.799998238682747
10
217.90028126440581
20
-78.799998238682747
10
217.90028126440581
20
-113.19999746978283
10
239.96217919541709
20
-113.19999746978283
10
239.96217919541709
20
-25.00093499859706
10
224.07028976164617
20
-25.00093499859706
0
LWPOLYLINE
5
106
100
AcDbEntity
8
0
100
AcDbPolyline
90
6
70
1
43
0.0
10
146.45800111758712
20
-113.19999746978283
10
146.45800111758712
20
-25.00093499859706
10
162.34989055135802
20
-25.00093499859706
10
162.3579979682267
20
-78.799998238682747
10
168.51989904859835
20
-78.799998238682747
10
168.51989904859835
20
-113.19999746978283
0
ENDSEC
0
SECTION
2
OBJECTS
0
DICTIONARY
5
C
100
AcDbDictionary
3
ACAD_GROUP
350
D
3
ACAD_MLINESTYLE
350
17
0
DICTIONARY
5
D
100
AcDbDictionary
0
DICTIONARY
5
1A
330
C
100
AcDbDictionary
0
DICTIONARY
5
17
100
AcDbDictionary
0
ENDSEC
0
EOF
